<?xml version="1.0" encoding="UTF-8"?>
<svg width="800" height="800" viewBox="0 0 800 800" xmlns="http://www.w3.org/2000/svg">
  <defs>
    <radialGradient id="bg" cx="50%" cy="38%" r="75%">
      <stop offset="0%" stop-color="#e59a6a" stop-opacity="0.35" />
      <stop offset="100%" stop-color="#e59a6a" stop-opacity="0" />
    </radialGradient>
    <linearGradient id="body" x1="0%" y1="0%" x2="100%" y2="100%">
      <stop offset="0%" stop-color="#e7a678" />
      <stop offset="55%" stop-color="#c1653a" />
      <stop offset="100%" stop-color="#7a3a1e" />
    </linearGradient>
    <linearGradient id="screen" x1="0%" y1="0%" x2="100%" y2="100%">
      <stop offset="0%" stop-color="#1c1c1e" />
      <stop offset="100%" stop-color="#050506" />
    </linearGradient>
    <linearGradient id="sheen" x1="0%" y1="0%" x2="100%" y2="100%">
      <stop offset="35%" stop-color="#ffffff" stop-opacity="0" />
      <stop offset="50%" stop-color="#ffffff" stop-opacity="0.12" />
      <stop offset="65%" stop-color="#ffffff" stop-opacity="0" />
    </linearGradient>
  </defs>

  <rect width="800" height="800" fill="url(#bg)" />

  <rect x="255" y="90" width="290" height="620" rx="62" fill="url(#body)" />
  <rect x="255" y="90" width="290" height="620" rx="62" fill="none" stroke="#7a3a1e" stroke-opacity="0.4" stroke-width="2" />

  <rect x="271" y="106" width="258" height="588" rx="48" fill="url(#screen)" />

  <rect x="349" y="130" width="102" height="30" rx="15" fill="#050506" />
  <circle cx="410" cy="145" r="4.5" fill="#1a1a1c" />

  <rect x="271" y="106" width="258" height="588" rx="48" fill="url(#sheen)" />

  <rect x="252" y="220" width="4" height="70" rx="2" fill="#7a3a1e" />
  <rect x="252" y="310" width="4" height="42" rx="2" fill="#7a3a1e" />
  <rect x="544" y="250" width="4" height="90" rx="2" fill="#7a3a1e" />
</svg>
